<?xml version="1.0" encoding="UTF-8"?>
<svg width="700pt" height="700pt" version="1.1" viewBox="0 0 700 700" xmlns="http://www.w3.org/2000/svg" xmlns:xlink="http://www.w3.org/1999/xlink">
 <defs>
  <symbol id="u" overflow="visible">
   <path d="m18.766-1.125c-0.96875 0.5-1.9805 0.875-3.0312 1.125-1.043 0.25781-2.1367 0.39062-3.2812 0.39062-3.3984 0-6.0898-0.94531-8.0781-2.8438-1.9922-1.9062-2.9844-4.4844-2.9844-7.7344 0-3.2578 0.99219-5.8359 2.9844-7.7344 1.9883-1.9062 4.6797-2.8594 8.0781-2.8594 1.1445 0 2.2383 0.13281 3.2812 0.39062 1.0508 0.25 2.0625 0.625 3.0312 1.125v4.2188c-0.98047-0.65625-1.9453-1.1406-2.8906-1.4531-0.94922-0.3125-1.9492-0.46875-3-0.46875-1.875 0-3.3516 0.60547-4.4219 1.8125-1.0742 1.1992-1.6094 2.8555-1.6094 4.9688 0 2.1055 0.53516 3.7617 1.6094 4.9688 1.0703 1.1992 2.5469 1.7969 4.4219 1.7969 1.0508 0 2.0508-0.14844 3-0.45312 0.94531-0.3125 1.9102-0.80078 2.8906-1.4688z"/>
  </symbol>
  <symbol id="b" overflow="visible">
   <path d="m13.734-11.141c-0.4375-0.19531-0.87109-0.34375-1.2969-0.4375-0.41797-0.10156-0.83984-0.15625-1.2656-0.15625-1.2617 0-2.2305 0.40625-2.9062 1.2188-0.67969 0.80469-1.0156 1.9531-1.0156 3.4531v7.0625h-4.8906v-15.312h4.8906v2.5156c0.625-1 1.3438-1.7266 2.1562-2.1875 0.82031-0.46875 1.8008-0.70312 2.9375-0.70312 0.16406 0 0.34375 0.011719 0.53125 0.03125 0.19531 0.011719 0.47656 0.039062 0.84375 0.078125z"/>
  </symbol>
  <symbol id="a" overflow="visible">
   <path d="m17.641-7.7031v1.4062h-11.453c0.125 1.1484 0.53906 2.0078 1.25 2.5781 0.70703 0.57422 1.7031 0.85938 2.9844 0.85938 1.0312 0 2.082-0.14844 3.1562-0.45312 1.082-0.3125 2.1914-0.77344 3.3281-1.3906v3.7656c-1.1562 0.4375-2.3125 0.76562-3.4688 0.98438-1.1562 0.22656-2.3125 0.34375-3.4688 0.34375-2.7734 0-4.9297-0.70312-6.4688-2.1094-1.5312-1.4062-2.2969-3.3789-2.2969-5.9219 0-2.5 0.75391-4.4609 2.2656-5.8906 1.5078-1.4375 3.582-2.1562 6.2188-2.1562 2.4062 0 4.332 0.73047 5.7812 2.1875 1.4453 1.4492 2.1719 3.3828 2.1719 5.7969zm-5.0312-1.625c0-0.92578-0.27344-1.6719-0.8125-2.2344-0.54297-0.57031-1.25-0.85938-2.125-0.85938-0.94922 0-1.7188 0.26562-2.3125 0.79688s-0.96484 1.2969-1.1094 2.2969z"/>
  </symbol>
  <symbol id="d" overflow="visible">
   <path d="m9.2188-6.8906c-1.0234 0-1.793 0.17188-2.3125 0.51562-0.51172 0.34375-0.76562 0.85547-0.76562 1.5312 0 0.625 0.20703 1.1172 0.625 1.4688 0.41406 0.34375 0.98828 0.51562 1.7188 0.51562 0.92578 0 1.7031-0.32812 2.3281-0.98438 0.63281-0.66406 0.95312-1.4922 0.95312-2.4844v-0.5625zm7.4688-1.8438v8.7344h-4.9219v-2.2656c-0.65625 0.92969-1.3984 1.6055-2.2188 2.0312-0.82422 0.41406-1.8242 0.625-3 0.625-1.5859 0-2.8711-0.45703-3.8594-1.375-0.99219-0.92578-1.4844-2.1289-1.4844-3.6094 0-1.7891 0.61328-3.1016 1.8438-3.9375 1.2383-0.84375 3.1797-1.2656 5.8281-1.2656h2.8906v-0.39062c0-0.76953-0.30859-1.332-0.92188-1.6875-0.61719-0.36328-1.5703-0.54688-2.8594-0.54688-1.0547 0-2.0312 0.10547-2.9375 0.3125-0.89844 0.21094-1.7305 0.52344-2.5 0.9375v-3.7344c1.0391-0.25 2.0859-0.44141 3.1406-0.57812 1.0625-0.13281 2.125-0.20312 3.1875-0.20312 2.7578 0 4.75 0.54688 5.9688 1.6406 1.2266 1.0859 1.8438 2.8555 1.8438 5.3125z"/>
  </symbol>
  <symbol id="c" overflow="visible">
   <path d="m7.7031-19.656v4.3438h5.0469v3.5h-5.0469v6.5c0 0.71094 0.14062 1.1875 0.42188 1.4375s0.83594 0.375 1.6719 0.375h2.5156v3.5h-4.1875c-1.9375 0-3.3125-0.39844-4.125-1.2031-0.80469-0.8125-1.2031-2.1797-1.2031-4.1094v-6.5h-2.4219v-3.5h2.4219v-4.3438z"/>
  </symbol>
  <symbol id="l" overflow="visible">
   <path d="m12.766-13.078v-8.2031h4.9219v21.281h-4.9219v-2.2188c-0.66797 0.90625-1.4062 1.5703-2.2188 1.9844s-1.7578 0.625-2.8281 0.625c-1.8867 0-3.4336-0.75-4.6406-2.25-1.2109-1.5-1.8125-3.4258-1.8125-5.7812 0-2.3633 0.60156-4.2969 1.8125-5.7969 1.207-1.5 2.7539-2.25 4.6406-2.25 1.0625 0 2 0.21484 2.8125 0.64062 0.82031 0.42969 1.5664 1.0859 2.2344 1.9688zm-3.2188 9.9219c1.0391 0 1.8359-0.37891 2.3906-1.1406 0.55078-0.76953 0.82812-1.8828 0.82812-3.3438 0-1.457-0.27734-2.5664-0.82812-3.3281-0.55469-0.76953-1.3516-1.1562-2.3906-1.1562-1.043 0-1.8398 0.38672-2.3906 1.1562-0.55469 0.76172-0.82812 1.8711-0.82812 3.3281 0 1.4609 0.27344 2.5742 0.82812 3.3438 0.55078 0.76172 1.3477 1.1406 2.3906 1.1406z"/>
  </symbol>
  <symbol id="k" overflow="visible">
   <path d="m10.5-3.1562c1.0508 0 1.8516-0.37891 2.4062-1.1406 0.55078-0.76953 0.82812-1.8828 0.82812-3.3438 0-1.457-0.27734-2.5664-0.82812-3.3281-0.55469-0.76953-1.3555-1.1562-2.4062-1.1562-1.0547 0-1.8594 0.38672-2.4219 1.1562-0.55469 0.77344-0.82812 1.8828-0.82812 3.3281 0 1.4492 0.27344 2.5586 0.82812 3.3281 0.5625 0.77344 1.3672 1.1562 2.4219 1.1562zm-3.25-9.9219c0.67578-0.88281 1.4219-1.5391 2.2344-1.9688 0.82031-0.42578 1.7656-0.64062 2.8281-0.64062 1.8945 0 3.4453 0.75 4.6562 2.25 1.207 1.5 1.8125 3.4336 1.8125 5.7969 0 2.3555-0.60547 4.2812-1.8125 5.7812-1.2109 1.5-2.7617 2.25-4.6562 2.25-1.0625 0-2.0078-0.21094-2.8281-0.625-0.8125-0.42578-1.5586-1.0859-2.2344-1.9844v2.2188h-4.8906v-21.281h4.8906z"/>
  </symbol>
  <symbol id="j" overflow="visible">
   <path d="m0.34375-15.312h4.8906l4.125 10.391 3.5-10.391h4.8906l-6.4375 16.766c-0.64844 1.6953-1.4023 2.8828-2.2656 3.5625-0.86719 0.6875-2 1.0312-3.4062 1.0312h-2.8438v-3.2188h1.5312c0.83203 0 1.4375-0.13672 1.8125-0.40625 0.38281-0.26172 0.67969-0.73047 0.89062-1.4062l0.14062-0.42188z"/>
  </symbol>
  <symbol id="i" overflow="visible">
   <path d="m2.5781-20.406h5.25v7.4375l7.5938-7.4375h6.1094l-9.8281 9.6562 10.844 10.75h-6.5938l-8.125-8.0469v8.0469h-5.25z"/>
  </symbol>
  <symbol id="h" overflow="visible">
   <path d="m17.75-9.3281v9.3281h-4.9219v-7.1406c0-1.3203-0.03125-2.2344-0.09375-2.7344s-0.16797-0.86719-0.3125-1.1094c-0.1875-0.3125-0.44922-0.55469-0.78125-0.73438-0.32422-0.17578-0.69531-0.26562-1.1094-0.26562-1.0234 0-1.8242 0.39844-2.4062 1.1875-0.58594 0.78125-0.875 1.8711-0.875 3.2656v7.5312h-4.8906v-15.312h4.8906v2.2344c0.73828-0.88281 1.5195-1.5391 2.3438-1.9688 0.83203-0.42578 1.75-0.64062 2.75-0.64062 1.7695 0 3.1133 0.54688 4.0312 1.6406 0.91406 1.0859 1.375 2.6562 1.375 4.7188z"/>
  </symbol>
  <symbol id="e" overflow="visible">
   <path d="m9.6406-12.188c-1.0859 0-1.9141 0.39062-2.4844 1.1719-0.57422 0.78125-0.85938 1.9062-0.85938 3.375s0.28516 2.5938 0.85938 3.375c0.57031 0.77344 1.3984 1.1562 2.4844 1.1562 1.0625 0 1.875-0.38281 2.4375-1.1562 0.57031-0.78125 0.85938-1.9062 0.85938-3.375s-0.28906-2.5938-0.85938-3.375c-0.5625-0.78125-1.375-1.1719-2.4375-1.1719zm0-3.5c2.6328 0 4.6914 0.71484 6.1719 2.1406 1.4766 1.418 2.2188 3.3867 2.2188 5.9062 0 2.5117-0.74219 4.4805-2.2188 5.9062-1.4805 1.418-3.5391 2.125-6.1719 2.125-2.6484 0-4.7148-0.70703-6.2031-2.125-1.4922-1.4258-2.2344-3.3945-2.2344-5.9062 0-2.5195 0.74219-4.4883 2.2344-5.9062 1.4883-1.4258 3.5547-2.1406 6.2031-2.1406z"/>
  </symbol>
  <symbol id="t" overflow="visible">
   <path d="m0.14062-20.406h18.812v3.9688h-6.7656v16.438h-5.2656v-16.438h-6.7812z"/>
  </symbol>
  <symbol id="g" overflow="visible">
   <path d="m2.3594-15.312h4.8906v15.031c0 2.0508-0.49609 3.6172-1.4844 4.7031-0.98047 1.082-2.4062 1.625-4.2812 1.625h-2.4219v-3.2188h0.85938c0.92578 0 1.5625-0.21094 1.9062-0.625 0.35156-0.41797 0.53125-1.2461 0.53125-2.4844zm0-5.9688h4.8906v4h-4.8906z"/>
  </symbol>
  <symbol id="s" overflow="visible">
   <path d="m2.3594-15.312h4.8906v15.312h-4.8906zm0-5.9688h4.8906v4h-4.8906z"/>
  </symbol>
  <symbol id="f" overflow="visible">
   <path d="m16.547-12.766c0.61328-0.94531 1.3477-1.6719 2.2031-2.1719 0.85156-0.5 1.7891-0.75 2.8125-0.75 1.7578 0 3.0977 0.54688 4.0156 1.6406 0.92578 1.0859 1.3906 2.6562 1.3906 4.7188v9.3281h-4.9219v-7.9844-0.35938c0.007813-0.13281 0.015625-0.32031 0.015625-0.5625 0-1.082-0.16406-1.8633-0.48438-2.3438-0.3125-0.48828-0.82422-0.73438-1.5312-0.73438-0.92969 0-1.6484 0.38672-2.1562 1.1562-0.51172 0.76172-0.77344 1.8672-0.78125 3.3125v7.5156h-4.9219v-7.9844c0-1.6953-0.14844-2.7852-0.4375-3.2656-0.29297-0.48828-0.8125-0.73438-1.5625-0.73438-0.9375 0-1.6641 0.38672-2.1719 1.1562-0.51172 0.76172-0.76562 1.8594-0.76562 3.2969v7.5312h-4.9219v-15.312h4.9219v2.2344c0.60156-0.86328 1.2891-1.5156 2.0625-1.9531 0.78125-0.4375 1.6406-0.65625 2.5781-0.65625 1.0625 0 2 0.25781 2.8125 0.76562 0.8125 0.51172 1.4258 1.2305 1.8438 2.1562z"/>
  </symbol>
  <symbol id="r" overflow="visible">
   <path d="m12.422-21.281v3.2188h-2.7031c-0.6875 0-1.1719 0.125-1.4531 0.375-0.27344 0.25-0.40625 0.6875-0.40625 1.3125v1.0625h4.1875v3.5h-4.1875v11.812h-4.8906v-11.812h-2.4375v-3.5h2.4375v-1.0625c0-1.6641 0.46094-2.8984 1.3906-3.7031 0.92578-0.80078 2.3672-1.2031 4.3281-1.2031z"/>
  </symbol>
  <symbol id="q" overflow="visible">
   <path d="m17.75-9.3281v9.3281h-4.9219v-7.1094c0-1.3438-0.03125-2.2656-0.09375-2.7656s-0.16797-0.86719-0.3125-1.1094c-0.1875-0.3125-0.44922-0.55469-0.78125-0.73438-0.32422-0.17578-0.69531-0.26562-1.1094-0.26562-1.0234 0-1.8242 0.39844-2.4062 1.1875-0.58594 0.78125-0.875 1.8711-0.875 3.2656v7.5312h-4.8906v-21.281h4.8906v8.2031c0.73828-0.88281 1.5195-1.5391 2.3438-1.9688 0.83203-0.42578 1.75-0.64062 2.75-0.64062 1.7695 0 3.1133 0.54688 4.0312 1.6406 0.91406 1.0859 1.375 2.6562 1.375 4.7188z"/>
  </symbol>
  <symbol id="p" overflow="visible">
   <path d="m2.5781-20.406h5.875l7.4219 14v-14h4.9844v20.406h-5.875l-7.4219-14v14h-4.9844z"/>
  </symbol>
  <symbol id="o" overflow="visible">
   <path d="m2.1875-5.9688v-9.3438h4.9219v1.5312c0 0.83594-0.007813 1.875-0.015625 3.125-0.011719 1.25-0.015625 2.0859-0.015625 2.5 0 1.2422 0.03125 2.1328 0.09375 2.6719 0.070313 0.54297 0.17969 0.93359 0.32812 1.1719 0.20703 0.32422 0.47266 0.57422 0.79688 0.75 0.32031 0.16797 0.69141 0.25 1.1094 0.25 1.0195 0 1.8203-0.39062 2.4062-1.1719 0.58203-0.78125 0.875-1.8672 0.875-3.2656v-7.5625h4.8906v15.312h-4.8906v-2.2188c-0.74219 0.89844-1.5234 1.5586-2.3438 1.9844-0.82422 0.41406-1.7344 0.625-2.7344 0.625-1.7617 0-3.1055-0.53906-4.0312-1.625-0.92969-1.082-1.3906-2.6602-1.3906-4.7344z"/>
  </symbol>
  <symbol id="n" overflow="visible">
   <path d="m2.5781-20.406h8.7344c2.5938 0 4.582 0.57812 5.9688 1.7344 1.3945 1.1484 2.0938 2.7891 2.0938 4.9219 0 2.1367-0.69922 3.7812-2.0938 4.9375-1.3867 1.1562-3.375 1.7344-5.9688 1.7344h-3.4844v7.0781h-5.25zm5.25 3.8125v5.7031h2.9219c1.0195 0 1.8047-0.25 2.3594-0.75 0.5625-0.5 0.84375-1.2031 0.84375-2.1094 0-0.91406-0.28125-1.6172-0.84375-2.1094-0.55469-0.48828-1.3398-0.73438-2.3594-0.73438z"/>
  </symbol>
  <symbol id="m" overflow="visible">
   <path d="m14.719-14.828v3.9844c-0.65625-0.45703-1.3242-0.79688-2-1.0156-0.66797-0.21875-1.3594-0.32812-2.0781-0.32812-1.3672 0-2.4336 0.40234-3.2031 1.2031-0.76172 0.79297-1.1406 1.9062-1.1406 3.3438 0 1.4297 0.37891 2.543 1.1406 3.3438 0.76953 0.79297 1.8359 1.1875 3.2031 1.1875 0.75781 0 1.4844-0.10938 2.1719-0.32812 0.6875-0.22656 1.3203-0.56641 1.9062-1.0156v4c-0.76172 0.28125-1.5391 0.48828-2.3281 0.625-0.78125 0.14453-1.5742 0.21875-2.375 0.21875-2.7617 0-4.9219-0.70703-6.4844-2.125-1.5547-1.4141-2.3281-3.3828-2.3281-5.9062 0-2.5312 0.77344-4.5039 2.3281-5.9219 1.5625-1.4141 3.7227-2.125 6.4844-2.125 0.80078 0 1.5938 0.074219 2.375 0.21875 0.78125 0.13672 1.5547 0.35156 2.3281 0.64062z"/>
  </symbol>
 </defs>
 <g>
  <path d="m124.88 440.72h450.24v-301.28h-450.24zm446.88-152.21h-39.199l-0.003906-126.67h39.199zm-42.559 0h-39.203v-126.67h39.199zm-42.559 0h-60.484v-126.67h60.48zm-63.84 0h-39.203v-126.67h39.199zm-42.559 0h-39.199l-0.007813-126.67h39.199zm-42.559 0h-39.199l-0.007812-126.67h39.199zm-42.559 0h-39.199l-0.007813-126.67h39.199zm-60.48-61.602h17.922v61.602h-17.93zm17.922-3.3594h-17.93v-61.602h17.922zm-21.289 64.961h-49.281v-126.67h49.281zm-52.641 0h-50.398l-0.003907-126.67h50.398zm-50.398 3.1367h39.199v126.67h-39.199zm42.559 0h17.922l-0.003906 126.67h-17.918zm21.281 0h39.199v126.67h-39.199zm42.559 0h39.199v126.67h-39.199zm42.559 0h17.922v126.67h-17.922zm21.281 0h17.918v126.67h-17.918zm21.281 0h17.922l-0.003906 126.67h-17.918zm21.281 0h39.199l-0.003907 126.67h-39.199zm42.559 0h39.199v126.67h-39.199zm42.559 0h17.922l-0.003906 126.67h-17.918zm21.281 0h39.199v126.67h-39.199zm42.559 0h39.199v126.67h-39.199zm42.559 0h39.199l0.003907 126.67h-39.199z"/>
  <path d="m497.84 126v-11.199h-44.801c-34.133-5.0781-68.543-8.0703-103.04-8.9609-34.496 0.89062-68.906 3.8828-103.04 8.9609h-44.801v11.199h-92.961v328.16h481.6v-328.16zm-41.441-7.8398h38.078v7.8398h-38.078zm-106.4-2.2383c40.32 0 102.98 10.078 103.04 10.078h-206.08s62.719-10.078 103.04-10.078zm-144.48 2.2383h38.082v7.8398h-38.082zm381.92 332.64h-474.88v-321.44h474.88z"/>
  <path d="m557.76 193.2c3.3945 0 6.457-2.0469 7.7578-5.1836 1.3008-3.1406 0.58203-6.7539-1.8203-9.1562-2.4023-2.4023-6.0156-3.1211-9.1523-1.8203-3.1406 1.3008-5.1875 4.3633-5.1875 7.7617 0 4.6367 3.7617 8.3984 8.4023 8.3984zm-1.6797-13.105v4.1445h3.3594v-4.1445 0.003906c2.0078 0.69141 3.3555 2.5781 3.3594 4.7031 0 2.7812-2.2578 5.0391-5.0391 5.0391-2.7852 0-5.043-2.2578-5.043-5.0391 0.003906-2.125 1.3516-4.0117 3.3594-4.7031z"/>
  <path d="m557.76 213.36c3.3945 0 6.457-2.0469 7.7578-5.1836 1.3008-3.1406 0.58203-6.7539-1.8203-9.1562-2.4023-2.4023-6.0156-3.1211-9.1523-1.8203-3.1406 1.3008-5.1875 4.3633-5.1875 7.7617 0 4.6367 3.7617 8.3984 8.4023 8.3984zm-1.6797-13.105v4.1445h3.3594v-4.1445 0.003906c2.0078 0.69141 3.3555 2.5781 3.3594 4.7031 0 2.7812-2.2578 5.0391-5.0391 5.0391-2.7852 0-5.043-2.2578-5.043-5.0391 0.003906-2.125 1.3516-4.0117 3.3594-4.7031z"/>
  <path d="m557.76 233.52c3.3945 0 6.457-2.0469 7.7578-5.1836 1.3008-3.1406 0.58203-6.7539-1.8203-9.1562-2.4023-2.4023-6.0156-3.1211-9.1523-1.8203-3.1406 1.3008-5.1875 4.3633-5.1875 7.7617 0 4.6367 3.7617 8.3984 8.4023 8.3984zm-1.6797-13.105v4.1445h3.3594v-4.1445c2.0078 0.69531 3.3555 2.582 3.3594 4.707 0 2.7812-2.2578 5.0391-5.0391 5.0391-2.7852 0-5.043-2.2578-5.043-5.0391 0.003906-2.125 1.3516-4.0117 3.3594-4.707z"/>
  <path d="m557.76 253.68c3.3945 0 6.457-2.0469 7.7578-5.1836 1.3008-3.1406 0.58203-6.7539-1.8203-9.1562-2.4023-2.4023-6.0156-3.1211-9.1523-1.8203-3.1406 1.3008-5.1875 4.3633-5.1875 7.7617 0 4.6367 3.7617 8.3984 8.4023 8.3984zm-1.6836-12.879v4.1445h3.3594l0.003906-4.1445c2.0078 0.69141 3.3555 2.5781 3.3594 4.7031 0 2.7852-2.2578 5.0391-5.0391 5.0391-2.7852 0-5.043-2.2539-5.043-5.0391 0.003906-2.125 1.3516-4.0117 3.3594-4.7031z"/>
  <path d="m557.76 273.84c3.3945 0 6.457-2.0469 7.7578-5.1836 1.3008-3.1406 0.58203-6.7539-1.8203-9.1562-2.4023-2.4023-6.0156-3.1211-9.1523-1.8203-3.1406 1.3008-5.1875 4.3633-5.1875 7.7617 0 4.6367 3.7617 8.3984 8.4023 8.3984zm-1.6797-13.105v4.1445h3.3594v-4.1445c2.0078 0.69531 3.3555 2.582 3.3594 4.707 0 2.7812-2.2578 5.0391-5.0391 5.0391-2.7852 0-5.043-2.2578-5.043-5.0391 0.003906-2.125 1.3516-4.0117 3.3594-4.707z"/>
  <path d="m543.76 184.8c0 5.2266-7.8398 5.2266-7.8398 0 0-5.2266 7.8398-5.2266 7.8398 0"/>
  <path d="m543.76 204.96c0 5.2266-7.8398 5.2266-7.8398 0 0-5.2266 7.8398-5.2266 7.8398 0"/>
  <path d="m543.76 225.12c0 5.2266-7.8398 5.2266-7.8398 0 0-5.2266 7.8398-5.2266 7.8398 0"/>
  <path d="m543.76 245.28c0 5.2266-7.8398 5.2266-7.8398 0s7.8398-5.2266 7.8398 0"/>
  <path d="m543.76 265.44c0 5.2266-7.8398 5.2266-7.8398 0 0-5.2266 7.8398-5.2266 7.8398 0"/>
  <path d="m515.2 193.2c3.3984 0 6.4609-2.0469 7.7617-5.1836 1.3008-3.1406 0.58203-6.7539-1.8203-9.1562s-6.0156-3.1211-9.1562-1.8203c-3.1367 1.3008-5.1836 4.3633-5.1836 7.7617 0 4.6367 3.7617 8.3984 8.3984 8.3984zm-1.6797-13.105v4.1445h3.3594v-4.1445 0.003906c2.0078 0.69141 3.3594 2.5781 3.3594 4.7031 0 2.7812-2.2539 5.0391-5.0391 5.0391-2.7812 0-5.0391-2.2578-5.0391-5.0391 0.003906-2.125 1.3516-4.0117 3.3594-4.7031z"/>
  <path d="m515.2 213.36c3.3984 0 6.4609-2.0469 7.7617-5.1836 1.3008-3.1406 0.58203-6.7539-1.8203-9.1562-2.4023-2.4023-6.0156-3.1211-9.1562-1.8203-3.1367 1.3008-5.1836 4.3633-5.1836 7.7617 0 4.6367 3.7617 8.3984 8.3984 8.3984zm-1.6797-13.105v4.1445h3.3594v-4.1445 0.003906c2.0078 0.69141 3.3594 2.5781 3.3594 4.7031 0 2.7812-2.2539 5.0391-5.0391 5.0391-2.7812 0-5.0391-2.2578-5.0391-5.0391 0.003906-2.125 1.3516-4.0117 3.3594-4.7031z"/>
  <path d="m515.2 233.52c3.3984 0 6.4609-2.0469 7.7617-5.1836 1.3008-3.1406 0.58203-6.7539-1.8203-9.1562-2.4023-2.4023-6.0156-3.1211-9.1562-1.8203-3.1367 1.3008-5.1836 4.3633-5.1836 7.7617 0 4.6367 3.7617 8.3984 8.3984 8.3984zm-1.6797-13.105v4.1445h3.3594v-4.1445c2.0078 0.69531 3.3594 2.582 3.3594 4.707 0 2.7812-2.2539 5.0391-5.0391 5.0391-2.7812 0-5.0391-2.2578-5.0391-5.0391 0.003906-2.125 1.3516-4.0117 3.3594-4.707z"/>
  <path d="m515.2 253.68c3.3984 0 6.4609-2.0469 7.7617-5.1836 1.3008-3.1406 0.58203-6.7539-1.8203-9.1562s-6.0156-3.1211-9.1562-1.8203c-3.1367 1.3008-5.1836 4.3633-5.1836 7.7617 0 4.6367 3.7617 8.3984 8.3984 8.3984zm-1.6797-12.879v4.1445h3.3594v-4.1445c2.0078 0.69141 3.3594 2.5781 3.3594 4.7031 0 2.7852-2.2539 5.0391-5.0391 5.0391-2.7812 0-5.0391-2.2539-5.0391-5.0391 0.003906-2.125 1.3516-4.0117 3.3594-4.7031z"/>
  <path d="m515.2 273.84c3.3984 0 6.4609-2.0469 7.7617-5.1836 1.3008-3.1406 0.58203-6.7539-1.8203-9.1562s-6.0156-3.1211-9.1562-1.8203c-3.1367 1.3008-5.1836 4.3633-5.1836 7.7617 0 4.6367 3.7617 8.3984 8.3984 8.3984zm-1.6797-13.105v4.1445h3.3594v-4.1445c2.0078 0.69531 3.3594 2.582 3.3594 4.707 0 2.7812-2.2539 5.0391-5.0391 5.0391-2.7812 0-5.0391-2.2578-5.0391-5.0391 0.003906-2.125 1.3516-4.0117 3.3594-4.707z"/>
  <path d="m501.2 184.8c0 5.2266-7.8398 5.2266-7.8398 0 0-5.2266 7.8398-5.2266 7.8398 0"/>
  <path d="m501.2 204.96c0 5.2266-7.8398 5.2266-7.8398 0 0-5.2266 7.8398-5.2266 7.8398 0"/>
  <path d="m501.2 225.12c0 5.2266-7.8398 5.2266-7.8398 0 0-5.2266 7.8398-5.2266 7.8398 0"/>
  <path d="m501.2 245.28c0 5.2266-7.8398 5.2266-7.8398 0s7.8398-5.2266 7.8398 0"/>
  <path d="m501.2 265.44c0 5.2266-7.8398 5.2266-7.8398 0 0-5.2266 7.8398-5.2266 7.8398 0"/>
  <path d="m408.8 193.2c3.3984 0 6.4609-2.0469 7.7617-5.1836 1.2969-3.1406 0.57812-6.7539-1.8242-9.1562-2.4023-2.4023-6.0156-3.1211-9.1523-1.8203-3.1406 1.3008-5.1875 4.3633-5.1875 7.7617 0 4.6367 3.7617 8.3984 8.4023 8.3984zm-1.6797-13.105v4.1445h3.3594v-4.1445 0.003906c2.0078 0.69141 3.3555 2.5781 3.3594 4.7031 0 2.7812-2.2578 5.0391-5.0391 5.0391-2.7852 0-5.0391-2.2578-5.0391-5.0391 0-2.125 1.3516-4.0117 3.3594-4.7031z"/>
  <path d="m408.8 213.36c3.3984 0 6.4609-2.0469 7.7617-5.1836 1.2969-3.1406 0.57812-6.7539-1.8242-9.1562-2.4023-2.4023-6.0156-3.1211-9.1523-1.8203-3.1406 1.3008-5.1875 4.3633-5.1875 7.7617 0 4.6367 3.7617 8.3984 8.4023 8.3984zm-1.6797-13.105v4.1445h3.3594v-4.1445 0.003906c2.0078 0.69141 3.3555 2.5781 3.3594 4.7031 0 2.7812-2.2578 5.0391-5.0391 5.0391-2.7852 0-5.0391-2.2578-5.0391-5.0391 0-2.125 1.3516-4.0117 3.3594-4.7031z"/>
  <path d="m408.8 233.52c3.3984 0 6.4609-2.0469 7.7617-5.1836 1.2969-3.1406 0.57812-6.7539-1.8242-9.1562-2.4023-2.4023-6.0156-3.1211-9.1523-1.8203-3.1406 1.3008-5.1875 4.3633-5.1875 7.7617 0 4.6367 3.7617 8.3984 8.4023 8.3984zm-1.6797-13.105v4.1445h3.3594v-4.1445c2.0078 0.69531 3.3555 2.582 3.3594 4.707 0 2.7812-2.2578 5.0391-5.0391 5.0391-2.7852 0-5.0391-2.2578-5.0391-5.0391 0-2.125 1.3516-4.0117 3.3594-4.707z"/>
  <path d="m408.8 253.68c3.3984 0 6.4609-2.0469 7.7617-5.1836 1.2969-3.1406 0.57812-6.7539-1.8242-9.1562-2.4023-2.4023-6.0156-3.1211-9.1523-1.8203-3.1406 1.3008-5.1875 4.3633-5.1875 7.7617 0 4.6367 3.7617 8.3984 8.4023 8.3984zm-1.6797-12.879v4.1445h3.3594v-4.1445c2.0078 0.69141 3.3555 2.5781 3.3594 4.7031 0 2.7852-2.2578 5.0391-5.0391 5.0391-2.7852 0-5.0391-2.2539-5.0391-5.0391 0-2.125 1.3516-4.0117 3.3594-4.7031z"/>
  <path d="m408.8 273.84c3.3984 0 6.4609-2.0469 7.7617-5.1836 1.2969-3.1406 0.57812-6.7539-1.8242-9.1562-2.4023-2.4023-6.0156-3.1211-9.1523-1.8203-3.1406 1.3008-5.1875 4.3633-5.1875 7.7617 0 4.6367 3.7617 8.3984 8.4023 8.3984zm-1.6797-13.105v4.1445h3.3594v-4.1445c2.0078 0.69531 3.3555 2.582 3.3594 4.707 0 2.7812-2.2578 5.0391-5.0391 5.0391-2.7852 0-5.0391-2.2578-5.0391-5.0391 0-2.125 1.3516-4.0117 3.3594-4.707z"/>
  <path d="m394.8 184.8c0 5.2266-7.8398 5.2266-7.8398 0 0-5.2266 7.8398-5.2266 7.8398 0"/>
  <path d="m394.8 204.96c0 5.2266-7.8398 5.2266-7.8398 0 0-5.2266 7.8398-5.2266 7.8398 0"/>
  <path d="m394.8 225.12c0 5.2266-7.8398 5.2266-7.8398 0 0-5.2266 7.8398-5.2266 7.8398 0"/>
  <path d="m394.8 245.28c0 5.2266-7.8398 5.2266-7.8398 0s7.8398-5.2266 7.8398 0"/>
  <path d="m394.8 265.44c0 5.2266-7.8398 5.2266-7.8398 0 0-5.2266 7.8398-5.2266 7.8398 0"/>
  <path d="m366.24 193.2c3.3984 0 6.4609-2.0469 7.7617-5.1836 1.3008-3.1406 0.58203-6.7539-1.8203-9.1562-2.4023-2.4023-6.0156-3.1211-9.1523-1.8203-3.1406 1.3008-5.1875 4.3633-5.1875 7.7617 0 4.6367 3.7617 8.3984 8.3984 8.3984zm-1.6797-13.105v4.1445h3.3594v-4.1445l0.003906 0.003906c2.0078 0.69141 3.3555 2.5781 3.3594 4.7031 0 2.7812-2.2578 5.0391-5.043 5.0391-2.7812 0-5.0391-2.2578-5.0391-5.0391 0.003906-2.125 1.3516-4.0117 3.3594-4.7031z"/>
  <path d="m366.24 213.36c3.3984 0 6.4609-2.0469 7.7617-5.1836 1.3008-3.1406 0.58203-6.7539-1.8203-9.1562-2.4023-2.4023-6.0156-3.1211-9.1523-1.8203-3.1406 1.3008-5.1875 4.3633-5.1875 7.7617 0 4.6367 3.7617 8.3984 8.3984 8.3984zm-1.6797-13.105v4.1445h3.3594v-4.1445l0.003906 0.003906c2.0078 0.69141 3.3555 2.5781 3.3594 4.7031 0 2.7812-2.2578 5.0391-5.043 5.0391-2.7812 0-5.0391-2.2578-5.0391-5.0391 0.003906-2.125 1.3516-4.0117 3.3594-4.7031z"/>
  <path d="m366.24 233.52c3.3984 0 6.4609-2.0469 7.7617-5.1836 1.3008-3.1406 0.58203-6.7539-1.8203-9.1562-2.4023-2.4023-6.0156-3.1211-9.1523-1.8203-3.1406 1.3008-5.1875 4.3633-5.1875 7.7617 0 4.6367 3.7617 8.3984 8.3984 8.3984zm-1.6797-13.105v4.1445h3.3594v-4.1445h0.003906c2.0078 0.69531 3.3555 2.582 3.3594 4.707 0 2.7812-2.2578 5.0391-5.043 5.0391-2.7812 0-5.0391-2.2578-5.0391-5.0391 0.003906-2.125 1.3516-4.0117 3.3594-4.707z"/>
  <path d="m366.24 253.68c3.3984 0 6.4609-2.0469 7.7617-5.1836 1.3008-3.1406 0.58203-6.7539-1.8203-9.1562-2.4023-2.4023-6.0156-3.1211-9.1523-1.8203-3.1406 1.3008-5.1875 4.3633-5.1875 7.7617 0 4.6367 3.7617 8.3984 8.3984 8.3984zm-1.6797-12.879v4.1445h3.3594l0.003906-4.1445c2.0078 0.69141 3.3555 2.5781 3.3594 4.7031 0 2.7852-2.2578 5.0391-5.043 5.0391-2.7812 0-5.0391-2.2539-5.0391-5.0391 0.003906-2.125 1.3516-4.0117 3.3594-4.7031z"/>
  <path d="m366.24 273.84c3.3984 0 6.4609-2.0469 7.7617-5.1836 1.3008-3.1406 0.58203-6.7539-1.8203-9.1562-2.4023-2.4023-6.0156-3.1211-9.1523-1.8203-3.1406 1.3008-5.1875 4.3633-5.1875 7.7617 0 4.6367 3.7617 8.3984 8.3984 8.3984zm-1.6797-13.105v4.1445h3.3594v-4.1445h0.003906c2.0078 0.69531 3.3555 2.582 3.3594 4.707 0 2.7812-2.2578 5.0391-5.043 5.0391-2.7812 0-5.0391-2.2578-5.0391-5.0391 0.003906-2.125 1.3516-4.0117 3.3594-4.707z"/>
  <path d="m352.24 184.8c0 5.2266-7.8398 5.2266-7.8398 0 0-5.2266 7.8398-5.2266 7.8398 0"/>
  <path d="m352.24 204.96c0 5.2266-7.8398 5.2266-7.8398 0 0-5.2266 7.8398-5.2266 7.8398 0"/>
  <path d="m352.24 225.12c0 5.2266-7.8398 5.2266-7.8398 0 0-5.2266 7.8398-5.2266 7.8398 0"/>
  <path d="m352.24 245.28c0 5.2266-7.8398 5.2266-7.8398 0s7.8398-5.2266 7.8398 0"/>
  <path d="m352.24 265.44c0 5.2266-7.8398 5.2266-7.8398 0 0-5.2266 7.8398-5.2266 7.8398 0"/>
  <path d="m323.68 193.2c3.3984 0 6.4609-2.0469 7.7617-5.1836 1.3008-3.1406 0.58203-6.7539-1.8203-9.1562s-6.0156-3.1211-9.1562-1.8203c-3.1367 1.3008-5.1836 4.3633-5.1836 7.7617 0 4.6367 3.7578 8.3984 8.3984 8.3984zm-1.6797-13.102v4.1445h3.3594v-4.1445c2.0078 0.69141 3.3555 2.5781 3.3594 4.7031 0 2.7812-2.2539 5.0391-5.0391 5.0391-2.7812 0-5.0391-2.2578-5.0391-5.0391 0.003906-2.125 1.3516-4.0117 3.3594-4.7031z"/>
  <path d="m323.68 213.36c3.3984 0 6.4609-2.0469 7.7617-5.1836 1.3008-3.1406 0.58203-6.7539-1.8203-9.1562-2.4023-2.4023-6.0156-3.1211-9.1562-1.8203-3.1367 1.3008-5.1836 4.3633-5.1836 7.7617 0 4.6367 3.7578 8.3984 8.3984 8.3984zm-1.6797-13.102v4.1445h3.3594v-4.1445c2.0078 0.69141 3.3555 2.5781 3.3594 4.7031 0 2.7812-2.2539 5.0391-5.0391 5.0391-2.7812 0-5.0391-2.2578-5.0391-5.0391 0.003906-2.125 1.3516-4.0117 3.3594-4.7031z"/>
  <path d="m323.68 233.52c3.3984 0 6.4609-2.0469 7.7617-5.1836 1.3008-3.1406 0.58203-6.7539-1.8203-9.1562-2.4023-2.4023-6.0156-3.1211-9.1562-1.8203-3.1367 1.3008-5.1836 4.3633-5.1836 7.7617 0 4.6367 3.7578 8.3984 8.3984 8.3984zm-1.6797-13.105v4.1445h3.3594v-4.1445c2.0078 0.69531 3.3555 2.582 3.3594 4.707 0 2.7812-2.2539 5.0391-5.0391 5.0391-2.7812 0-5.0391-2.2578-5.0391-5.0391 0.003906-2.125 1.3516-4.0117 3.3594-4.707z"/>
  <path d="m323.68 253.68c3.3984 0 6.4609-2.0469 7.7617-5.1836 1.3008-3.1406 0.58203-6.7539-1.8203-9.1562s-6.0156-3.1211-9.1562-1.8203c-3.1367 1.3008-5.1836 4.3633-5.1836 7.7617 0 4.6367 3.7578 8.3984 8.3984 8.3984zm-1.6797-12.879v4.1445h3.3594v-4.1445c2.0078 0.69141 3.3555 2.5781 3.3594 4.7031 0 2.7852-2.2539 5.0391-5.0391 5.0391-2.7812 0-5.0391-2.2539-5.0391-5.0391 0.003906-2.125 1.3516-4.0117 3.3594-4.7031z"/>
  <path d="m323.68 273.84c3.3984 0 6.4609-2.0469 7.7617-5.1836 1.3008-3.1406 0.58203-6.7539-1.8203-9.1562s-6.0156-3.1211-9.1562-1.8203c-3.1367 1.3008-5.1836 4.3633-5.1836 7.7617 0 4.6367 3.7578 8.3984 8.3984 8.3984zm-1.6797-13.105v4.1445h3.3594v-4.1445c2.0078 0.69531 3.3555 2.582 3.3594 4.707 0 2.7812-2.2539 5.0391-5.0391 5.0391-2.7812 0-5.0391-2.2578-5.0391-5.0391 0.003906-2.125 1.3516-4.0117 3.3594-4.707z"/>
  <path d="m309.68 184.8c0 5.2266-7.8398 5.2266-7.8398 0 0-5.2266 7.8398-5.2266 7.8398 0"/>
  <path d="m309.68 225.12c0 5.2266-7.8398 5.2266-7.8398 0 0-5.2266 7.8398-5.2266 7.8398 0"/>
  <path d="m309.68 245.28c0 5.2266-7.8398 5.2266-7.8398 0s7.8398-5.2266 7.8398 0"/>
  <path d="m309.68 265.44c0 5.2266-7.8398 5.2266-7.8398 0 0-5.2266 7.8398-5.2266 7.8398 0"/>
  <path d="m281.12 193.2c3.3945 0 6.4609-2.0469 7.7578-5.1836 1.3008-3.1406 0.58203-6.7539-1.8203-9.1562s-6.0156-3.1211-9.1523-1.8203c-3.1406 1.3008-5.1875 4.3633-5.1875 7.7617 0 4.6367 3.7617 8.3984 8.4023 8.3984zm-1.6797-13.105v4.1445h3.3594v-4.1445 0.003906c2.0078 0.69141 3.3555 2.5781 3.3594 4.7031 0 2.7812-2.2578 5.0391-5.0391 5.0391-2.7852 0-5.043-2.2578-5.043-5.0391 0.003906-2.125 1.3555-4.0117 3.3633-4.7031z"/>
  <path d="m281.12 213.36c3.3945 0 6.4609-2.0469 7.7578-5.1836 1.3008-3.1406 0.58203-6.7539-1.8203-9.1562-2.4023-2.4023-6.0156-3.1211-9.1523-1.8203-3.1406 1.3008-5.1875 4.3633-5.1875 7.7617 0 4.6367 3.7617 8.3984 8.4023 8.3984zm-1.6797-13.105v4.1445h3.3594v-4.1445 0.003906c2.0078 0.69141 3.3555 2.5781 3.3594 4.7031 0 2.7812-2.2578 5.0391-5.0391 5.0391-2.7852 0-5.043-2.2578-5.043-5.0391 0.003906-2.125 1.3555-4.0117 3.3633-4.7031z"/>
  <path d="m281.12 233.52c3.3945 0 6.4609-2.0469 7.7578-5.1836 1.3008-3.1406 0.58203-6.7539-1.8203-9.1562-2.4023-2.4023-6.0156-3.1211-9.1523-1.8203-3.1406 1.3008-5.1875 4.3633-5.1875 7.7617 0 4.6367 3.7617 8.3984 8.4023 8.3984zm-1.6797-13.105v4.1445h3.3594v-4.1445c2.0078 0.69531 3.3555 2.582 3.3594 4.707 0 2.7812-2.2578 5.0391-5.0391 5.0391-2.7852 0-5.043-2.2578-5.043-5.0391 0.003906-2.125 1.3555-4.0117 3.3633-4.707z"/>
  <path d="m281.12 253.68c3.3945 0 6.4609-2.0469 7.7578-5.1836 1.3008-3.1406 0.58203-6.7539-1.8203-9.1562s-6.0156-3.1211-9.1523-1.8203c-3.1406 1.3008-5.1875 4.3633-5.1875 7.7617 0 4.6367 3.7617 8.3984 8.4023 8.3984zm-1.6797-12.879v4.1445h3.3594v-4.1445c2.0078 0.69141 3.3555 2.5781 3.3594 4.7031 0 2.7852-2.2578 5.0391-5.0391 5.0391-2.7852 0-5.043-2.2539-5.043-5.0391 0.003906-2.125 1.3555-4.0117 3.3633-4.7031z"/>
  <path d="m211.68 199.92c3.3984 0 6.4609-2.0469 7.7617-5.1875 1.3008-3.1406 0.58203-6.75-1.8203-9.1523-2.4023-2.4023-6.0156-3.1211-9.1562-1.8242-3.1367 1.3008-5.1836 4.3633-5.1836 7.7617 0 4.6406 3.7578 8.4023 8.3984 8.4023zm-1.6797-13.105v4.1445h3.3594v-4.1445c2.0078 0.69141 3.3555 2.5781 3.3594 4.7031 0 2.7852-2.2539 5.0391-5.0391 5.0391-2.7812 0-5.0391-2.2539-5.0391-5.0391 0.003906-2.125 1.3516-4.0117 3.3594-4.7031z"/>
  <path d="m211.68 220.08c3.3984 0 6.4609-2.043 7.7617-5.1836 1.3008-3.1406 0.58203-6.75-1.8203-9.1523-2.4023-2.4023-6.0156-3.1211-9.1562-1.8242-3.1367 1.3008-5.1836 4.3633-5.1836 7.7617 0 4.6406 3.7578 8.3984 8.3984 8.3984zm-1.6797-12.879v4.1445h3.3594v-4.1445c2.0078 0.69141 3.3555 2.582 3.3594 4.7031 0 2.7852-2.2539 5.043-5.0391 5.043-2.7812 0-5.0391-2.2578-5.0391-5.043 0.003906-2.1211 1.3516-4.0117 3.3594-4.7031z"/>
  <path d="m211.68 240.24c3.3984 0 6.4609-2.043 7.7617-5.1836 1.3008-3.1406 0.58203-6.7539-1.8203-9.1562-2.4023-2.4023-6.0156-3.1211-9.1562-1.8203-3.1367 1.3008-5.1836 4.3633-5.1836 7.7617 0 4.6406 3.7578 8.3984 8.3984 8.3984zm-1.6797-13.102v4.1445h3.3594v-4.1445c2.0078 0.69141 3.3555 2.5781 3.3594 4.7031 0 2.7852-2.2539 5.0391-5.0391 5.0391-2.7812 0-5.0391-2.2539-5.0391-5.0391 0.003906-2.125 1.3516-4.0117 3.3594-4.7031z"/>
  <path d="m211.68 260.4c3.3984 0 6.4609-2.0469 7.7617-5.1836 1.3008-3.1406 0.58203-6.7539-1.8203-9.1562s-6.0156-3.1211-9.1562-1.8203c-3.1367 1.3008-5.1836 4.3633-5.1836 7.7617 0 4.6406 3.7578 8.3984 8.3984 8.3984zm-1.6797-13.102v4.1445h3.3594v-4.1445c2.0078 0.69141 3.3555 2.5781 3.3594 4.7031 0 2.7852-2.2539 5.0391-5.0391 5.0391-2.7812 0-5.0391-2.2539-5.0391-5.0391 0.003906-2.125 1.3516-4.0117 3.3594-4.7031z"/>
  <path d="m281.12 273.84c3.3945 0 6.4609-2.0469 7.7578-5.1836 1.3008-3.1406 0.58203-6.7539-1.8203-9.1562s-6.0156-3.1211-9.1523-1.8203c-3.1406 1.3008-5.1875 4.3633-5.1875 7.7617 0 4.6367 3.7617 8.3984 8.4023 8.3984zm-1.6797-13.105v4.1445h3.3594v-4.1445c2.0078 0.69531 3.3555 2.582 3.3594 4.707 0 2.7812-2.2578 5.0391-5.0391 5.0391-2.7852 0-5.043-2.2578-5.043-5.0391 0.003906-2.125 1.3555-4.0117 3.3633-4.707z"/>
  <path d="m267.12 184.8c0 5.2266-7.8398 5.2266-7.8398 0 0-5.2266 7.8398-5.2266 7.8398 0"/>
  <path d="m267.12 265.44c0 5.2266-7.8398 5.2266-7.8398 0 0-5.2266 7.8398-5.2266 7.8398 0"/>
  <path d="m451.36 193.2c3.3984 0 6.4609-2.0469 7.7617-5.1836 1.3008-3.1406 0.58203-6.7539-1.8203-9.1562-2.4023-2.4023-6.0156-3.1211-9.1562-1.8203-3.1367 1.3008-5.1836 4.3633-5.1836 7.7617 0 4.6367 3.7617 8.3984 8.3984 8.3984zm-1.6797-13.105v4.1445h3.3594v-4.1445 0.003906c2.0078 0.69141 3.3594 2.5781 3.3594 4.7031 0 2.7812-2.2539 5.0391-5.0391 5.0391-2.7812 0-5.0391-2.2578-5.0391-5.0391 0.003907-2.125 1.3516-4.0117 3.3594-4.7031z"/>
  <path d="m451.36 213.36c3.3984 0 6.4609-2.0469 7.7617-5.1836 1.3008-3.1406 0.58203-6.7539-1.8203-9.1562-2.4023-2.4023-6.0156-3.1211-9.1562-1.8203-3.1367 1.3008-5.1836 4.3633-5.1836 7.7617 0 4.6367 3.7617 8.3984 8.3984 8.3984zm-1.6797-13.105v4.1445h3.3594v-4.1445 0.003906c2.0078 0.69141 3.3594 2.5781 3.3594 4.7031 0 2.7812-2.2539 5.0391-5.0391 5.0391-2.7812 0-5.0391-2.2578-5.0391-5.0391 0.003907-2.125 1.3516-4.0117 3.3594-4.7031z"/>
  <path d="m451.36 233.52c3.3984 0 6.4609-2.0469 7.7617-5.1836 1.3008-3.1406 0.58203-6.7539-1.8203-9.1562-2.4023-2.4023-6.0156-3.1211-9.1562-1.8203-3.1367 1.3008-5.1836 4.3633-5.1836 7.7617 0 4.6367 3.7617 8.3984 8.3984 8.3984zm-1.6797-13.105v4.1445h3.3594v-4.1445c2.0078 0.69531 3.3594 2.582 3.3594 4.707 0 2.7812-2.2539 5.0391-5.0391 5.0391-2.7812 0-5.0391-2.2578-5.0391-5.0391 0.003907-2.125 1.3516-4.0117 3.3594-4.707z"/>
  <path d="m451.36 253.68c3.3984 0 6.4609-2.0469 7.7617-5.1836 1.3008-3.1406 0.58203-6.7539-1.8203-9.1562-2.4023-2.4023-6.0156-3.1211-9.1562-1.8203-3.1367 1.3008-5.1836 4.3633-5.1836 7.7617 0 4.6367 3.7617 8.3984 8.3984 8.3984zm-1.6797-12.879v4.1445h3.3594v-4.1445c2.0078 0.69141 3.3594 2.5781 3.3594 4.7031 0 2.7852-2.2539 5.0391-5.0391 5.0391-2.7812 0-5.0391-2.2539-5.0391-5.0391 0.003907-2.125 1.3516-4.0117 3.3594-4.7031z"/>
  <path d="m451.36 273.84c3.3984 0 6.4609-2.0469 7.7617-5.1836 1.3008-3.1406 0.58203-6.7539-1.8203-9.1562-2.4023-2.4023-6.0156-3.1211-9.1562-1.8203-3.1367 1.3008-5.1836 4.3633-5.1836 7.7617 0 4.6367 3.7617 8.3984 8.3984 8.3984zm-1.6797-13.105v4.1445h3.3594v-4.1445c2.0078 0.69531 3.3594 2.582 3.3594 4.707 0 2.7812-2.2539 5.0391-5.0391 5.0391-2.7812 0-5.0391-2.2578-5.0391-5.0391 0.003907-2.125 1.3516-4.0117 3.3594-4.707z"/>
  <path d="m437.36 184.8c0 5.2266-7.8398 5.2266-7.8398 0 0-5.2266 7.8398-5.2266 7.8398 0"/>
  <path d="m437.36 204.96c0 5.2266-7.8398 5.2266-7.8398 0 0-5.2266 7.8398-5.2266 7.8398 0"/>
  <path d="m437.36 225.12c0 5.2266-7.8398 5.2266-7.8398 0 0-5.2266 7.8398-5.2266 7.8398 0"/>
  <path d="m437.36 245.28c0 5.2266-7.8398 5.2266-7.8398 0s7.8398-5.2266 7.8398 0"/>
  <path d="m479.92 180.32c0 5.2266-7.8438 5.2266-7.8438 0 0-5.2266 7.8438-5.2266 7.8438 0"/>
  <path d="m479.92 193.76c0 5.2266-7.8438 5.2266-7.8438 0 0-5.2266 7.8438-5.2266 7.8438 0"/>
  <path d="m479.92 207.31c0 5.2266-7.8438 5.2266-7.8438 0s7.8438-5.2266 7.8438 0"/>
  <path d="m479.92 220.64c0 5.2266-7.8438 5.2266-7.8438 0s7.8438-5.2266 7.8438 0"/>
  <path d="m479.92 234.08c0 5.2305-7.8438 5.2305-7.8438 0 0-5.2266 7.8438-5.2266 7.8438 0"/>
  <path d="m479.92 247.52c0 5.2266-7.8438 5.2266-7.8438 0 0-5.2266 7.8438-5.2266 7.8438 0"/>
  <path d="m479.92 260.96c0 5.2266-7.8438 5.2266-7.8438 0 0-5.2266 7.8438-5.2266 7.8438 0"/>
  <path d="m249.2 180.32c0 5.2266-7.8398 5.2266-7.8398 0 0-5.2266 7.8398-5.2266 7.8398 0"/>
  <path d="m249.2 193.76c0 5.2266-7.8398 5.2266-7.8398 0 0-5.2266 7.8398-5.2266 7.8398 0"/>
  <path d="m193.2 178.08c0 5.2305-7.8398 5.2305-7.8398 0 0-5.2266 7.8398-5.2266 7.8398 0"/>
  <path d="m193.2 191.52c0 5.2266-7.8398 5.2266-7.8398 0 0-5.2266 7.8398-5.2266 7.8398 0"/>
  <path d="m249.2 207.31c0 5.2266-7.8398 5.2266-7.8398 0s7.8398-5.2266 7.8398 0"/>
  <path d="m249.2 234.08c0 5.2305-7.8398 5.2305-7.8398 0 0-5.2266 7.8398-5.2266 7.8398 0"/>
  <path d="m249.2 247.52c0 5.2266-7.8398 5.2266-7.8398 0 0-5.2266 7.8398-5.2266 7.8398 0"/>
  <path d="m249.2 260.96c0 5.2266-7.8398 5.2266-7.8398 0 0-5.2266 7.8398-5.2266 7.8398 0"/>
  <path d="m479.92 274.4c0 5.2266-7.8438 5.2266-7.8438 0 0-5.2266 7.8438-5.2266 7.8438 0"/>
  <path d="m193.2 211.68c0 5.2266-7.8398 5.2266-7.8398 0 0-5.2266 7.8398-5.2266 7.8398 0"/>
  <path d="m193.2 231.84c0 5.2266-7.8398 5.2266-7.8398 0 0-5.2266 7.8398-5.2266 7.8398 0"/>
  <path d="m193.2 252c0 5.2266-7.8398 5.2266-7.8398 0s7.8398-5.2266 7.8398 0"/>
  <path d="m193.2 272.16c0 5.2266-7.8398 5.2266-7.8398 0 0-5.2266 7.8398-5.2266 7.8398 0"/>
  <path d="m204.4 272.16c0 5.2266-7.8398 5.2266-7.8398 0 0-5.2266 7.8398-5.2266 7.8398 0"/>
  <path d="m215.6 272.16c0 5.2266-7.8398 5.2266-7.8398 0 0-5.2266 7.8398-5.2266 7.8398 0"/>
  <path d="m226.8 272.16c0 5.2266-7.8398 5.2266-7.8398 0 0-5.2266 7.8398-5.2266 7.8398 0"/>
  <path d="m157.92 199.92c3.3945 0 6.457-2.0469 7.7578-5.1875 1.3008-3.1406 0.58203-6.75-1.8203-9.1523-2.4023-2.4023-6.0156-3.1211-9.1523-1.8242-3.1406 1.3008-5.1875 4.3633-5.1875 7.7617 0 4.6406 3.7617 8.4023 8.4023 8.4023zm-1.6797-13.105v4.1445h3.3594v-4.1445c2.0078 0.69141 3.3555 2.5781 3.3594 4.7031 0 2.7852-2.2578 5.0391-5.0391 5.0391-2.7852 0-5.043-2.2539-5.043-5.0391 0.003906-2.125 1.3516-4.0117 3.3594-4.7031z"/>
  <path d="m157.92 220.08c3.3945 0 6.457-2.043 7.7578-5.1836 1.3008-3.1406 0.58203-6.75-1.8203-9.1523-2.4023-2.4023-6.0156-3.1211-9.1523-1.8242-3.1406 1.3008-5.1875 4.3633-5.1875 7.7617 0 4.6406 3.7617 8.3984 8.4023 8.3984zm-1.6836-12.879v4.1445h3.3633v-4.1445c2.0078 0.69141 3.3555 2.582 3.3594 4.7031 0 2.7852-2.2578 5.043-5.0391 5.043-2.7852 0-5.043-2.2578-5.043-5.043 0.003906-2.1211 1.3516-4.0117 3.3594-4.7031z"/>
  <path d="m157.92 240.24c3.3945 0 6.457-2.043 7.7578-5.1836 1.3008-3.1406 0.58203-6.7539-1.8203-9.1562-2.4023-2.4023-6.0156-3.1211-9.1523-1.8203-3.1406 1.3008-5.1875 4.3633-5.1875 7.7617 0 4.6406 3.7617 8.3984 8.4023 8.3984zm-1.6797-13.105v4.1445l3.3594 0.003906v-4.1445c2.0078 0.69141 3.3555 2.5781 3.3594 4.7031 0 2.7852-2.2578 5.0391-5.0391 5.0391-2.7852 0-5.043-2.2539-5.043-5.0391 0.003906-2.125 1.3516-4.0117 3.3594-4.7031z"/>
  <path d="m157.92 260.4c3.3945 0 6.457-2.0469 7.7578-5.1836 1.3008-3.1406 0.58203-6.7539-1.8203-9.1562s-6.0156-3.1211-9.1523-1.8203c-3.1406 1.3008-5.1875 4.3633-5.1875 7.7617 0 4.6406 3.7617 8.3984 8.4023 8.3984zm-1.6797-13.105v4.1445l3.3594 0.003906v-4.1445c2.0078 0.69141 3.3555 2.5781 3.3594 4.7031 0 2.7852-2.2578 5.0391-5.0391 5.0391-2.7852 0-5.043-2.2539-5.043-5.0391 0.003906-2.125 1.3516-4.0117 3.3594-4.7031z"/>
  <path d="m139.44 178.08c0 5.2305-7.8398 5.2305-7.8398 0 0-5.2266 7.8398-5.2266 7.8398 0"/>
  <path d="m139.44 191.52c0 5.2266-7.8398 5.2266-7.8398 0 0-5.2266 7.8398-5.2266 7.8398 0"/>
  <path d="m139.44 211.68c0 5.2266-7.8398 5.2266-7.8398 0 0-5.2266 7.8398-5.2266 7.8398 0"/>
  <path d="m139.44 231.84c0 5.2266-7.8398 5.2266-7.8398 0 0-5.2266 7.8398-5.2266 7.8398 0"/>
  <path d="m139.44 252c0 5.2266-7.8398 5.2266-7.8398 0s7.8398-5.2266 7.8398 0"/>
  <path d="m139.44 272.16c0 5.2266-7.8398 5.2266-7.8398 0 0-5.2266 7.8398-5.2266 7.8398 0"/>
  <path d="m150.64 272.16c0 5.2266-7.8398 5.2266-7.8398 0 0-5.2266 7.8398-5.2266 7.8398 0"/>
  <path d="m161.84 272.16c0 5.2266-7.8398 5.2266-7.8398 0 0-5.2266 7.8398-5.2266 7.8398 0"/>
  <path d="m173.04 272.16c0 5.2266-7.8398 5.2266-7.8398 0 0-5.2266 7.8398-5.2266 7.8398 0"/>
  <path d="m557.76 306.32c-3.3984 0-6.4609 2.0469-7.7617 5.1836-1.3008 3.1406-0.58203 6.7539 1.8203 9.1562 2.4023 2.4023 6.0156 3.1211 9.1523 1.8203 3.1406-1.3008 5.1875-4.3633 5.1875-7.7617 0-4.6367-3.7617-8.3984-8.3984-8.3984zm0 13.441c-2.7852 0-5.043-2.2578-5.043-5.043 0.003906-2.1211 1.3516-4.0117 3.3594-4.7031v4.1445h3.3594v-4.1445h0.003906c2.0078 0.69141 3.3555 2.582 3.3594 4.7031 0 2.7852-2.2578 5.043-5.0391 5.043z"/>
  <path d="m557.76 326.48c-3.3984 0-6.4609 2.0469-7.7617 5.1836-1.3008 3.1406-0.58203 6.7539 1.8203 9.1562 2.4023 2.4023 6.0156 3.1211 9.1523 1.8203 3.1406-1.3008 5.1875-4.3633 5.1875-7.7617 0-4.6367-3.7617-8.3984-8.3984-8.3984zm0 13.441c-2.7852 0-5.043-2.2578-5.043-5.043 0.003906-2.1211 1.3516-4.0117 3.3594-4.7031v4.1445h3.3594l0.003906-3.9219c2.0078 0.69531 3.3555 2.582 3.3594 4.707-0.12109 2.6953-2.3438 4.8164-5.0391 4.8164z"/>
  <path d="m557.76 346.64c-3.3984 0-6.4609 2.0469-7.7617 5.1836-1.3008 3.1406-0.58203 6.7539 1.8203 9.1562 2.4023 2.4023 6.0156 3.1211 9.1523 1.8203 3.1406-1.3008 5.1875-4.3633 5.1875-7.7617 0-4.6367-3.7617-8.3984-8.3984-8.3984zm0 13.441v-0.003906c-2.7852 0-5.043-2.2539-5.043-5.0391 0.003906-2.1211 1.3516-4.0117 3.3594-4.7031v4.1445h3.3594v-4.1445h0.003906c2.0078 0.69141 3.3555 2.582 3.3594 4.7031 0 2.7852-2.2578 5.0391-5.0391 5.0391z"/>
  <path d="m557.76 366.8c-3.3984 0-6.4609 2.0469-7.7617 5.1836-1.3008 3.1406-0.58203 6.7539 1.8203 9.1562 2.4023 2.4023 6.0156 3.1211 9.1523 1.8203 3.1406-1.3008 5.1875-4.3633 5.1875-7.7617 0-4.6367-3.7617-8.3984-8.3984-8.3984zm0 13.441v-0.003907c-2.7852 0-5.043-2.2539-5.043-5.0391 0.003906-2.1211 1.3516-4.0117 3.3594-4.7031v4.1445h3.3594v-4.1445h0.003906c2.0078 0.69141 3.3555 2.582 3.3594 4.7031 0 1.3359-0.53125 2.6211-1.4766 3.5664-0.94531 0.94531-2.2266 1.4727-3.5625 1.4727z"/>
  <path d="m543.76 314.72c0 5.2266-7.8398 5.2266-7.8398 0s7.8398-5.2266 7.8398 0"/>
  <path d="m543.76 334.88c0 5.2266-7.8398 5.2266-7.8398 0 0-5.2266 7.8398-5.2266 7.8398 0"/>
  <path d="m543.76 355.04c0 5.2266-7.8398 5.2266-7.8398 0 0-5.2266 7.8398-5.2266 7.8398 0"/>
  <path d="m543.76 375.2c0 5.2266-7.8398 5.2266-7.8398 0 0-5.2266 7.8398-5.2266 7.8398 0"/>
  <path d="m543.76 395.36c0 5.2266-7.8398 5.2266-7.8398 0s7.8398-5.2266 7.8398 0"/>
  <path d="m515.2 323.12c3.3984 0 6.4609-2.0469 7.7617-5.1875 1.3008-3.1367 0.58203-6.75-1.8203-9.1523s-6.0156-3.1211-9.1562-1.8203c-3.1367 1.2969-5.1836 4.3633-5.1836 7.7578 0 4.6406 3.7617 8.4023 8.3984 8.4023zm-1.6797-13.105v4.1445h3.3594v-4.1445c2.0078 0.69141 3.3594 2.582 3.3594 4.7031 0 2.7852-2.2539 5.043-5.0391 5.043-2.7812 0-5.0391-2.2578-5.0391-5.043 0.003906-2.1211 1.3516-4.0117 3.3594-4.7031z"/>
  <path d="m515.2 326.48c-3.3984 0-6.4609 2.0469-7.7617 5.1836-1.2969 3.1406-0.57812 6.7539 1.8242 9.1562 2.4023 2.4023 6.0156 3.1211 9.1523 1.8203 3.1406-1.3008 5.1875-4.3633 5.1875-7.7617 0-4.6367-3.7617-8.3984-8.4023-8.3984zm0 13.441c-2.7812 0-5.0391-2.2578-5.0391-5.043 0.003906-2.1211 1.3516-4.0117 3.3594-4.7031v4.1445h3.3594v-3.9219c2.0078 0.69531 3.3594 2.582 3.3594 4.707-0.11719 2.6953-2.3398 4.8164-5.0391 4.8164z"/>
  <path d="m515.2 346.64c-3.3984 0-6.4609 2.0469-7.7617 5.1836-1.2969 3.1406-0.57812 6.7539 1.8242 9.1562 2.4023 2.4023 6.0156 3.1211 9.1523 1.8203 3.1406-1.3008 5.1875-4.3633 5.1875-7.7617 0-4.6367-3.7617-8.3984-8.4023-8.3984zm0 13.441v-0.003906c-2.7812 0-5.0391-2.2539-5.0391-5.0391 0.003906-2.1211 1.3516-4.0117 3.3594-4.7031v4.1445h3.3594v-4.1445c2.0078 0.69141 3.3594 2.582 3.3594 4.7031 0 2.7852-2.2539 5.0391-5.0391 5.0391z"/>
  <path d="m515.2 366.8c-3.3984 0-6.4609 2.0469-7.7617 5.1836-1.2969 3.1406-0.57812 6.7539 1.8242 9.1562 2.4023 2.4023 6.0156 3.1211 9.1523 1.8203 3.1406-1.3008 5.1875-4.3633 5.1875-7.7617 0-4.6367-3.7617-8.3984-8.4023-8.3984zm0 13.441v-0.003907c-2.7812 0-5.0391-2.2539-5.0391-5.0391 0.003906-2.1211 1.3516-4.0117 3.3594-4.7031v4.1445h3.3594v-4.1445c2.0078 0.69141 3.3594 2.582 3.3594 4.7031 0 2.7852-2.2539 5.0391-5.0391 5.0391z"/>
  <path d="m501.2 314.72c0 5.2266-7.8398 5.2266-7.8398 0s7.8398-5.2266 7.8398 0"/>
  <path d="m501.2 334.88c0 5.2266-7.8398 5.2266-7.8398 0 0-5.2266 7.8398-5.2266 7.8398 0"/>
  <path d="m472.64 323.12c3.3984 0 6.4609-2.0469 7.7617-5.1875 1.2969-3.1367 0.57812-6.75-1.8242-9.1523s-6.0156-3.1211-9.1523-1.8203c-3.1406 1.2969-5.1875 4.3633-5.1875 7.7578 0 4.6406 3.7617 8.4023 8.4023 8.4023zm-1.6797-13.105v4.1445h3.3594v-4.1445c2.0078 0.69141 3.3555 2.582 3.3594 4.7031 0 2.7852-2.2578 5.043-5.0391 5.043-2.7852 0-5.0391-2.2578-5.0391-5.043 0-2.1211 1.3516-4.0117 3.3594-4.7031z"/>
  <path d="m472.64 326.48c-3.3984 0-6.4609 2.0469-7.7617 5.1836-1.3008 3.1406-0.58203 6.7539 1.8203 9.1562 2.4023 2.4023 6.0156 3.1211 9.1562 1.8203 3.1367-1.3008 5.1836-4.3633 5.1836-7.7617 0-4.6367-3.7617-8.3984-8.3984-8.3984zm0 13.441c-2.7852 0-5.0391-2.2578-5.0391-5.043 0-2.1211 1.3516-4.0117 3.3594-4.7031v4.1445h3.3594v-3.9219c2.0078 0.69531 3.3555 2.582 3.3594 4.707-0.12109 2.6953-2.3398 4.8164-5.0391 4.8164z"/>
  <path d="m458.64 314.72c0 5.2266-7.8398 5.2266-7.8398 0s7.8398-5.2266 7.8398 0"/>
  <path d="m458.64 334.88c0 5.2266-7.8398 5.2266-7.8398 0 0-5.2266 7.8398-5.2266 7.8398 0"/>
  <path d="m472.64 355.6c-3.3984 0-6.4609 2.0469-7.7617 5.1836-1.3008 3.1406-0.58203 6.7539 1.8203 9.1562 2.4023 2.4023 6.0156 3.1211 9.1562 1.8203 3.1367-1.3008 5.1836-4.3633 5.1836-7.7617 0-4.6406-3.7617-8.3984-8.3984-8.3984zm0 13.441v-0.003907c-1.3359 0-2.6211-0.53125-3.5625-1.4766-0.94531-0.94531-1.4766-2.2266-1.4766-3.5625 0-2.125 1.3516-4.0117 3.3594-4.7031v4.1445h3.3594v-4.1445c2.0078 0.69141 3.3555 2.5781 3.3594 4.7031 0 2.7852-2.2578 5.0391-5.0391 5.0391z"/>
  <path d="m472.64 375.76c-3.3984 0-6.4609 2.043-7.7617 5.1836-1.3008 3.1406-0.58203 6.7539 1.8203 9.1562 2.4023 2.4023 6.0156 3.1211 9.1562 1.8203 3.1367-1.3008 5.1836-4.3633 5.1836-7.7617 0-4.6406-3.7617-8.3984-8.3984-8.3984zm0 13.441v-0.003906c-2.7852 0-5.0391-2.2539-5.0391-5.0391 0-2.125 1.3516-4.0117 3.3594-4.7031v4.1445h3.3594v-4.1445c2.0078 0.69141 3.3555 2.5781 3.3594 4.7031 0 2.7852-2.2578 5.0391-5.0391 5.0391z"/>
  <path d="m458.64 364c0 5.2266-7.8398 5.2266-7.8398 0s7.8398-5.2266 7.8398 0"/>
  <path d="m458.64 384.16c0 5.2266-7.8398 5.2266-7.8398 0 0-5.2266 7.8398-5.2266 7.8398 0"/>
  <path d="m501.2 355.04c0 5.2266-7.8398 5.2266-7.8398 0 0-5.2266 7.8398-5.2266 7.8398 0"/>
  <path d="m501.2 375.2c0 5.2266-7.8398 5.2266-7.8398 0 0-5.2266 7.8398-5.2266 7.8398 0"/>
  <path d="m501.2 395.36c0 5.2266-7.8398 5.2266-7.8398 0s7.8398-5.2266 7.8398 0"/>
  <path d="m366.24 323.12c3.3984 0 6.4609-2.0469 7.7617-5.1875 1.3008-3.1367 0.58203-6.75-1.8203-9.1523-2.4023-2.4023-6.0156-3.1211-9.1523-1.8203-3.1406 1.2969-5.1875 4.3633-5.1875 7.7578 0 4.6406 3.7617 8.4023 8.3984 8.4023zm-1.6797-13.105v4.1445h3.3594v-4.1445h0.003906c2.0078 0.69141 3.3555 2.582 3.3594 4.7031 0 2.7852-2.2578 5.043-5.043 5.043-2.7812 0-5.0391-2.2578-5.0391-5.043 0.003906-2.1211 1.3516-4.0117 3.3594-4.7031z"/>
  <path d="m366.24 326.48c-3.3945 0-6.457 2.0469-7.7578 5.1836-1.3008 3.1406-0.58203 6.7539 1.8203 9.1562 2.4023 2.4023 6.0156 3.1211 9.1523 1.8203 3.1406-1.3008 5.1875-4.3633 5.1875-7.7617 0-4.6367-3.7617-8.3984-8.4023-8.3984zm0 13.441c-2.7812 0-5.0391-2.2578-5.0391-5.043 0.003906-2.1211 1.3516-4.0117 3.3594-4.7031v4.1445h3.3594l0.003906-3.9219c2.0078 0.69531 3.3555 2.582 3.3594 4.707-0.12109 2.6953-2.3438 4.8164-5.043 4.8164z"/>
  <path d="m366.24 346.64c-3.3945 0-6.457 2.0469-7.7578 5.1836-1.3008 3.1406-0.58203 6.7539 1.8203 9.1562 2.4023 2.4023 6.0156 3.1211 9.1523 1.8203 3.1406-1.3008 5.1875-4.3633 5.1875-7.7617 0-4.6367-3.7617-8.3984-8.4023-8.3984zm0 13.441v-0.003906c-2.7812 0-5.0391-2.2539-5.0391-5.0391 0.003906-2.1211 1.3516-4.0117 3.3594-4.7031v4.1445h3.3594v-4.1445h0.003906c2.0078 0.69141 3.3555 2.582 3.3594 4.7031 0 1.3359-0.53125 2.6211-1.4766 3.5664-0.94531 0.94531-2.2266 1.4727-3.5664 1.4727z"/>
  <path d="m366.24 366.8c-3.3945 0-6.457 2.0469-7.7578 5.1836-1.3008 3.1406-0.58203 6.7539 1.8203 9.1562 2.4023 2.4023 6.0156 3.1211 9.1523 1.8203 3.1406-1.3008 5.1875-4.3633 5.1875-7.7617 0-4.6367-3.7617-8.3984-8.4023-8.3984zm0 13.441v-0.003907c-1.3359 0-2.6172-0.52734-3.5625-1.4727-0.94531-0.94531-1.4766-2.2305-1.4766-3.5664 0.003906-2.1211 1.3516-4.0117 3.3594-4.7031v4.1445h3.3594v-4.1445h0.003906c2.0078 0.69141 3.3555 2.582 3.3594 4.7031 0 1.3359-0.53125 2.6211-1.4766 3.5664-0.94531 0.94531-2.2266 1.4727-3.5664 1.4727z"/>
  <path d="m366.24 386.96c-3.3945 0-6.457 2.0469-7.7578 5.1836-1.3008 3.1406-0.58203 6.7539 1.8203 9.1562 2.4023 2.4023 6.0156 3.1211 9.1523 1.8203 3.1406-1.3008 5.1875-4.3633 5.1875-7.7617 0-4.6367-3.7617-8.3984-8.4023-8.3984zm0 13.441v-0.003906c-2.7812 0-5.0391-2.2539-5.0391-5.0391 0.003906-2.125 1.3516-4.0117 3.3594-4.7031v4.1445h3.3594v-4.1445h0.003906c2.0078 0.69141 3.3555 2.5781 3.3594 4.7031 0 1.3359-0.53125 2.6211-1.4766 3.5625-0.94531 0.94531-2.2266 1.4766-3.5664 1.4766z"/>
  <path d="m352.24 314.72c0 5.2266-7.8398 5.2266-7.8398 0s7.8398-5.2266 7.8398 0"/>
  <path d="m352.24 334.88c0 5.2266-7.8398 5.2266-7.8398 0 0-5.2266 7.8398-5.2266 7.8398 0"/>
  <path d="m352.24 355.04c0 5.2266-7.8398 5.2266-7.8398 0 0-5.2266 7.8398-5.2266 7.8398 0"/>
  <path d="m352.24 375.2c0 5.2266-7.8398 5.2266-7.8398 0 0-5.2266 7.8398-5.2266 7.8398 0"/>
  <path d="m352.24 395.36c0 5.2266-7.8398 5.2266-7.8398 0s7.8398-5.2266 7.8398 0"/>
  <path d="m245.84 395.36c0 5.2266-7.8398 5.2266-7.8398 0s7.8398-5.2266 7.8398 0"/>
  <path d="m408.8 323.12c3.3984 0 6.4609-2.0469 7.7617-5.1875 1.2969-3.1367 0.57812-6.75-1.8242-9.1523-2.4023-2.4023-6.0156-3.1211-9.1523-1.8203-3.1406 1.2969-5.1875 4.3633-5.1875 7.7578 0 4.6406 3.7617 8.4023 8.4023 8.4023zm-1.6797-13.105v4.1445h3.3594v-4.1445c2.0078 0.69141 3.3555 2.582 3.3594 4.7031 0 2.7852-2.2578 5.043-5.0391 5.043-2.7852 0-5.0391-2.2578-5.0391-5.043 0-2.1211 1.3516-4.0117 3.3594-4.7031z"/>
  <path d="m408.8 346.64c-3.3984 0-6.4609 2.0469-7.7617 5.1836-1.3008 3.1406-0.58203 6.7539 1.8203 9.1562 2.4023 2.4023 6.0156 3.1211 9.1562 1.8203 3.1367-1.3008 5.1836-4.3633 5.1836-7.7617 0-4.6367-3.7617-8.3984-8.3984-8.3984zm0 13.441v-0.003906c-2.7852 0-5.0391-2.2539-5.0391-5.0391 0-2.1211 1.3516-4.0117 3.3594-4.7031v4.1445h3.3594v-4.1445c2.0078 0.69141 3.3555 2.582 3.3594 4.7031 0 1.3359-0.53125 2.6211-1.4766 3.5664-0.94531 0.94531-2.2266 1.4727-3.5625 1.4727z"/>
  <path d="m408.8 366.8c-3.3984 0-6.4609 2.0469-7.7617 5.1836-1.3008 3.1406-0.58203 6.7539 1.8203 9.1562s6.0156 3.1211 9.1562 1.8203c3.1367-1.3008 5.1836-4.3633 5.1836-7.7617 0-4.6367-3.7617-8.3984-8.3984-8.3984zm0 13.441v-0.003907c-2.7852 0-5.0391-2.2539-5.0391-5.0391 0-2.1211 1.3516-4.0117 3.3594-4.7031v4.1445h3.3594v-4.1445c2.0078 0.69141 3.3555 2.582 3.3594 4.7031 0 1.3359-0.53125 2.6211-1.4766 3.5664-0.94531 0.94531-2.2266 1.4727-3.5625 1.4727z"/>
  <path d="m394.8 314.72c0 5.2266-7.8398 5.2266-7.8398 0s7.8398-5.2266 7.8398 0"/>
  <path d="m394.8 334.88c0 5.2266-7.8398 5.2266-7.8398 0 0-5.2266 7.8398-5.2266 7.8398 0"/>
  <path d="m394.8 355.04c0 5.2266-7.8398 5.2266-7.8398 0 0-5.2266 7.8398-5.2266 7.8398 0"/>
  <path d="m394.8 395.36c0 5.2266-7.8398 5.2266-7.8398 0s7.8398-5.2266 7.8398 0"/>
  <path d="m440.72 310.24c0 5.2266-7.8398 5.2266-7.8398 0 0-5.2266 7.8398-5.2266 7.8398 0"/>
  <path d="m440.72 323.68c0 5.2266-7.8398 5.2266-7.8398 0 0-5.2266 7.8398-5.2266 7.8398 0"/>
  <path d="m440.72 337.23c0 5.2266-7.8398 5.2266-7.8398 0 0-5.2266 7.8398-5.2266 7.8398 0"/>
  <path d="m440.72 350.56c0 5.2266-7.8398 5.2266-7.8398 0 0-5.2266 7.8398-5.2266 7.8398 0"/>
  <path d="m440.72 364c0 5.2266-7.8398 5.2266-7.8398 0s7.8398-5.2266 7.8398 0"/>
  <path d="m440.72 377.44c0 5.2266-7.8398 5.2266-7.8398 0 0-5.2266 7.8398-5.2266 7.8398 0"/>
  <path d="m440.72 390.88c0 5.2266-7.8398 5.2266-7.8398 0 0-5.2266 7.8398-5.2266 7.8398 0"/>
  <path d="m440.72 404.32c0 5.2266-7.8398 5.2266-7.8398 0 0-5.2266 7.8398-5.2266 7.8398 0"/>
  <path d="m334.32 310.24c0 5.2266-7.8398 5.2266-7.8398 0 0-5.2266 7.8398-5.2266 7.8398 0"/>
  <path d="m334.32 323.68c0 5.2266-7.8398 5.2266-7.8398 0 0-5.2266 7.8398-5.2266 7.8398 0"/>
  <path d="m334.32 337.23c0 5.2266-7.8398 5.2266-7.8398 0 0-5.2266 7.8398-5.2266 7.8398 0"/>
  <path d="m334.32 350.56c0 5.2266-7.8398 5.2266-7.8398 0 0-5.2266 7.8398-5.2266 7.8398 0"/>
  <path d="m334.32 364c0 5.2266-7.8398 5.2266-7.8398 0s7.8398-5.2266 7.8398 0"/>
  <path d="m334.32 377.44c0 5.2266-7.8398 5.2266-7.8398 0 0-5.2266 7.8398-5.2266 7.8398 0"/>
  <path d="m334.32 390.88c0 5.2266-7.8398 5.2266-7.8398 0 0-5.2266 7.8398-5.2266 7.8398 0"/>
  <path d="m334.32 404.32c0 5.2266-7.8398 5.2266-7.8398 0 0-5.2266 7.8398-5.2266 7.8398 0"/>
  <path d="m313.04 310.24c0 5.2266-7.8398 5.2266-7.8398 0 0-5.2266 7.8398-5.2266 7.8398 0"/>
  <path d="m313.04 323.68c0 5.2266-7.8398 5.2266-7.8398 0 0-5.2266 7.8398-5.2266 7.8398 0"/>
  <path d="m313.04 337.23c0 5.2266-7.8398 5.2266-7.8398 0 0-5.2266 7.8398-5.2266 7.8398 0"/>
  <path d="m313.04 350.56c0 5.2266-7.8398 5.2266-7.8398 0 0-5.2266 7.8398-5.2266 7.8398 0"/>
  <path d="m313.04 364c0 5.2266-7.8398 5.2266-7.8398 0s7.8398-5.2266 7.8398 0"/>
  <path d="m313.04 377.44c0 5.2266-7.8398 5.2266-7.8398 0 0-5.2266 7.8398-5.2266 7.8398 0"/>
  <path d="m313.04 390.88c0 5.2266-7.8398 5.2266-7.8398 0 0-5.2266 7.8398-5.2266 7.8398 0"/>
  <path d="m313.04 404.32c0 5.2266-7.8398 5.2266-7.8398 0 0-5.2266 7.8398-5.2266 7.8398 0"/>
  <path d="m291.76 310.24c0 5.2266-7.8398 5.2266-7.8398 0 0-5.2266 7.8398-5.2266 7.8398 0"/>
  <path d="m291.76 323.68c0 5.2266-7.8398 5.2266-7.8398 0 0-5.2266 7.8398-5.2266 7.8398 0"/>
  <path d="m291.76 337.23c0 5.2266-7.8398 5.2266-7.8398 0 0-5.2266 7.8398-5.2266 7.8398 0"/>
  <path d="m291.76 350.56c0 5.2266-7.8398 5.2266-7.8398 0 0-5.2266 7.8398-5.2266 7.8398 0"/>
  <path d="m291.76 364c0 5.2266-7.8398 5.2266-7.8398 0s7.8398-5.2266 7.8398 0"/>
  <path d="m245.84 310.24c0 5.2266-7.8398 5.2266-7.8398 0 0-5.2266 7.8398-5.2266 7.8398 0"/>
  <path d="m245.84 323.68c0 5.2266-7.8398 5.2266-7.8398 0 0-5.2266 7.8398-5.2266 7.8398 0"/>
  <path d="m245.84 337.23c0 5.2266-7.8398 5.2266-7.8398 0 0-5.2266 7.8398-5.2266 7.8398 0"/>
  <path d="m245.84 350.56c0 5.2266-7.8398 5.2266-7.8398 0 0-5.2266 7.8398-5.2266 7.8398 0"/>
  <path d="m245.84 364c0 5.2266-7.8398 5.2266-7.8398 0s7.8398-5.2266 7.8398 0"/>
  <path d="m291.76 377.44c0 5.2266-7.8398 5.2266-7.8398 0 0-5.2266 7.8398-5.2266 7.8398 0"/>
  <path d="m291.76 390.88c0 5.2266-7.8398 5.2266-7.8398 0 0-5.2266 7.8398-5.2266 7.8398 0"/>
  <path d="m185.36 310.24c0 5.2266-7.8398 5.2266-7.8398 0 0-5.2266 7.8398-5.2266 7.8398 0"/>
  <path d="m185.36 323.68c0 5.2266-7.8398 5.2266-7.8398 0 0-5.2266 7.8398-5.2266 7.8398 0"/>
  <path d="m185.36 337.23c0 5.2266-7.8398 5.2266-7.8398 0 0-5.2266 7.8398-5.2266 7.8398 0"/>
  <path d="m185.36 364c0 5.2266-7.8398 5.2266-7.8398 0s7.8398-5.2266 7.8398 0"/>
  <path d="m185.36 377.44c0 5.2266-7.8398 5.2266-7.8398 0 0-5.2266 7.8398-5.2266 7.8398 0"/>
  <path d="m185.36 390.88c0 5.2266-7.8398 5.2266-7.8398 0 0-5.2266 7.8398-5.2266 7.8398 0"/>
  <path d="m291.76 404.32c0 5.2266-7.8398 5.2266-7.8398 0 0-5.2266 7.8398-5.2266 7.8398 0"/>
  <path d="m153.44 323.12c3.3945 0 6.4609-2.0469 7.7578-5.1875 1.3008-3.1367 0.58203-6.75-1.8203-9.1523s-6.0156-3.1211-9.1523-1.8203c-3.1406 1.2969-5.1875 4.3633-5.1875 7.7578 0 4.6406 3.7617 8.4023 8.4023 8.4023zm-1.6797-13.105v4.1445h3.3594v-4.1445c2.0078 0.69141 3.3555 2.582 3.3594 4.7031 0 2.7852-2.2578 5.043-5.0391 5.043-2.7852 0-5.043-2.2578-5.043-5.043 0.003906-2.1211 1.3555-4.0117 3.3633-4.7031z"/>
  <path d="m153.44 326.48c-3.3984 0-6.4609 2.0469-7.7617 5.1836-1.3008 3.1406-0.58203 6.7539 1.8203 9.1562 2.4023 2.4023 6.0156 3.1211 9.1562 1.8203 3.1367-1.3008 5.1836-4.3633 5.1836-7.7617 0-4.6367-3.7617-8.3984-8.3984-8.3984zm0 13.441c-2.7852 0-5.043-2.2578-5.043-5.043 0.003906-2.1211 1.3555-4.0117 3.3633-4.7031v4.1445h3.3594v-3.9219c2.0078 0.69531 3.3555 2.582 3.3594 4.707-0.12109 2.6953-2.3438 4.8164-5.0391 4.8164z"/>
  <path d="m153.44 346.64c-3.3984 0-6.4609 2.0469-7.7617 5.1836-1.3008 3.1406-0.58203 6.7539 1.8203 9.1562 2.4023 2.4023 6.0156 3.1211 9.1562 1.8203 3.1367-1.3008 5.1836-4.3633 5.1836-7.7617 0-4.6367-3.7617-8.3984-8.3984-8.3984zm0 13.441v-0.003906c-2.7852 0-5.043-2.2539-5.043-5.0391 0.003906-2.1211 1.3555-4.0117 3.3633-4.7031v4.1445h3.3594v-4.1445c2.0078 0.69141 3.3555 2.582 3.3594 4.7031 0 2.7852-2.2578 5.0391-5.0391 5.0391z"/>
  <path d="m153.44 366.8c-3.3984 0-6.4609 2.0469-7.7617 5.1836-1.3008 3.1406-0.58203 6.7539 1.8203 9.1562s6.0156 3.1211 9.1562 1.8203c3.1367-1.3008 5.1836-4.3633 5.1836-7.7617 0-4.6367-3.7617-8.3984-8.3984-8.3984zm0 13.441v-0.003907c-1.3398 0-2.6211-0.52734-3.5664-1.4727s-1.4766-2.2305-1.4766-3.5664c0.003906-2.1211 1.3555-4.0117 3.3633-4.7031v4.1445h3.3594v-4.1445c2.0078 0.69141 3.3555 2.582 3.3594 4.7031 0 1.3359-0.53125 2.6211-1.4766 3.5664-0.94531 0.94531-2.2266 1.4727-3.5625 1.4727z"/>
  <path d="m259.84 366.8c-3.3984 0-6.4609 2.0469-7.7617 5.1836-1.3008 3.1406-0.58203 6.7539 1.8203 9.1562 2.4023 2.4023 6.0156 3.1211 9.1562 1.8203 3.1406-1.3008 5.1836-4.3633 5.1836-7.7617 0-4.6367-3.7578-8.3984-8.3984-8.3984zm0 13.441v-0.003907c-1.3359 0-2.6172-0.52734-3.5625-1.4727-0.94531-0.94531-1.4766-2.2305-1.4766-3.5664 0.003907-2.1211 1.3516-4.0117 3.3594-4.7031v4.1445h3.3594v-4.1445c2.0078 0.69141 3.3555 2.582 3.3594 4.7031 0 1.3359-0.53125 2.6211-1.4766 3.5664-0.94531 0.94531-2.2266 1.4727-3.5625 1.4727z"/>
  <path d="m203.28 395.36c0 5.2266-7.8398 5.2266-7.8398 0s7.8398-5.2266 7.8398 0"/>
  <path d="m203.28 310.24c0 5.2266-7.8398 5.2266-7.8398 0 0-5.2266 7.8398-5.2266 7.8398 0"/>
  <path d="m203.28 323.68c0 5.2266-7.8398 5.2266-7.8398 0 0-5.2266 7.8398-5.2266 7.8398 0"/>
  <path d="m203.28 337.23c0 5.2266-7.8398 5.2266-7.8398 0 0-5.2266 7.8398-5.2266 7.8398 0"/>
  <path d="m203.28 350.56c0 5.2266-7.8398 5.2266-7.8398 0 0-5.2266 7.8398-5.2266 7.8398 0"/>
  <path d="m203.28 364c0 5.2266-7.8398 5.2266-7.8398 0s7.8398-5.2266 7.8398 0"/>
  <path d="m217.28 366.8c-3.3984 0-6.4609 2.0469-7.7617 5.1836-1.3008 3.1406-0.58203 6.7539 1.8203 9.1562s6.0156 3.1211 9.1562 1.8203c3.1367-1.3008 5.1836-4.3633 5.1836-7.7617 0-4.6367-3.7617-8.3984-8.3984-8.3984zm0 13.441v-0.003907c-2.7852 0-5.043-2.2539-5.043-5.0391 0.003907-2.1211 1.3555-4.0117 3.3633-4.7031v4.1445h3.3594v-4.1445c2.0078 0.69141 3.3555 2.582 3.3594 4.7031 0 1.3359-0.53125 2.6211-1.4766 3.5664s-2.2266 1.4727-3.5625 1.4727z"/>
  <use x="70" y="644" xlink:href="#u"/>
  <use x="90.550781" y="644" xlink:href="#b"/>
  <use x="104.359375" y="644" xlink:href="#a"/>
  <use x="123.347656" y="644" xlink:href="#d"/>
  <use x="142.242188" y="644" xlink:href="#c"/>
  <use x="155.628906" y="644" xlink:href="#a"/>
  <use x="174.617188" y="644" xlink:href="#l"/>
  <use x="204.410156" y="644" xlink:href="#k"/>
  <use x="224.453125" y="644" xlink:href="#j"/>
  <use x="252.453125" y="644" xlink:href="#i"/>
  <use x="274.148438" y="644" xlink:href="#a"/>
  <use x="293.140625" y="644" xlink:href="#h"/>
  <use x="313.070312" y="644" xlink:href="#c"/>
  <use x="326.457031" y="644" xlink:href="#d"/>
  <use x="345.351562" y="644" xlink:href="#b"/>
  <use x="359.160156" y="644" xlink:href="#e"/>
  <use x="388.144531" y="644" xlink:href="#t"/>
  <use x="407.242188" y="644" xlink:href="#a"/>
  <use x="426.234375" y="644" xlink:href="#b"/>
  <use x="440.042969" y="644" xlink:href="#d"/>
  <use x="458.9375" y="644" xlink:href="#g"/>
  <use x="468.535156" y="644" xlink:href="#s"/>
  <use x="478.132812" y="644" xlink:href="#f"/>
  <use x="507.308594" y="644" xlink:href="#d"/>
  <use x="70" y="672" xlink:href="#r"/>
  <use x="82.183594" y="672" xlink:href="#b"/>
  <use x="95.992188" y="672" xlink:href="#e"/>
  <use x="115.226562" y="672" xlink:href="#f"/>
  <use x="154.152344" y="672" xlink:href="#c"/>
  <use x="167.535156" y="672" xlink:href="#q"/>
  <use x="187.46875" y="672" xlink:href="#a"/>
  <use x="216.207031" y="672" xlink:href="#p"/>
  <use x="239.640625" y="672" xlink:href="#e"/>
  <use x="258.878906" y="672" xlink:href="#o"/>
  <use x="278.8125" y="672" xlink:href="#h"/>
  <use x="308.492188" y="672" xlink:href="#n"/>
  <use x="329.015625" y="672" xlink:href="#b"/>
  <use x="342.820312" y="672" xlink:href="#e"/>
  <use x="362.058594" y="672" xlink:href="#g"/>
  <use x="371.65625" y="672" xlink:href="#a"/>
  <use x="390.648438" y="672" xlink:href="#m"/>
  <use x="407.242188" y="672" xlink:href="#c"/>
 </g>
</svg>
